<svg xmlns="http://www.w3.org/2000/svg" width="512" height="512" viewBox="0 0 512 512">
  <defs>
    <linearGradient id="bg" x1="0%" y1="0%" x2="100%" y2="100%">
      <stop offset="0%" style="stop-color:#10b981"/>
      <stop offset="100%" style="stop-color:#059669"/>
    </linearGradient>
  </defs>
  <!-- Background -->
  <rect width="512" height="512" rx="100" fill="url(#bg)"/>
  <!-- Calendar icon -->
  <rect x="96" y="128" width="320" height="288" rx="24" fill="white" fill-opacity="0.95"/>
  <rect x="96" y="128" width="320" height="64" rx="24" fill="white"/>
  <rect x="96" y="168" width="320" height="24" fill="#10b981"/>
  <!-- Calendar dots (header) -->
  <circle cx="144" cy="160" r="12" fill="#10b981"/>
  <circle cx="368" cy="160" r="12" fill="#10b981"/>
  <!-- Grid lines -->
  <line x1="96" y1="248" x2="416" y2="248" stroke="#e2e8f0" stroke-width="2"/>
  <line x1="96" y1="312" x2="416" y2="312" stroke="#e2e8f0" stroke-width="2"/>
  <line x1="96" y1="376" x2="416" y2="376" stroke="#e2e8f0" stroke-width="2"/>
  <line x1="176" y1="192" x2="176" y2="416" stroke="#e2e8f0" stroke-width="2"/>
  <line x1="256" y1="192" x2="256" y2="416" stroke="#e2e8f0" stroke-width="2"/>
  <line x1="336" y1="192" x2="336" y2="416" stroke="#e2e8f0" stroke-width="2"/>
  <!-- Checkmarks indicating scheduled slots -->
  <path d="M120 220 L132 232 L152 204" stroke="#10b981" stroke-width="6" fill="none" stroke-linecap="round" stroke-linejoin="round"/>
  <path d="M200 284 L212 296 L232 268" stroke="#10b981" stroke-width="6" fill="none" stroke-linecap="round" stroke-linejoin="round"/>
  <path d="M280 348 L292 360 L312 332" stroke="#10b981" stroke-width="6" fill="none" stroke-linecap="round" stroke-linejoin="round"/>
  <path d="M360 220 L372 232 L392 204" stroke="#10b981" stroke-width="6" fill="none" stroke-linecap="round" stroke-linejoin="round"/>
  <path d="M120 348 L132 360 L152 332" stroke="#10b981" stroke-width="6" fill="none" stroke-linecap="round" stroke-linejoin="round"/>
</svg>
